<svg width="64" height="64" viewBox="0 0 64 64" fill="none" xmlns="http://www.w3.org/2000/svg">
<path d="M45 57H19C13.5 57 9 52.5 9 47V21C9 15.5 13.5 11 19 11H45C50.5 11 55 15.5 55 21V47C55 52.5 50.5 57 45 57Z" fill="url(#paint0_radial_176_105)"/>
<path d="M32 20C36.6 20 37.1 20 38.9 20.1C40.6 20.2 41.5 20.5 42.1 20.7C42.9 21 43.5 21.4 44.1 22C44.7 22.6 45.1 23.2 45.4 24C45.6 24.6 45.9 25.5 46 27.2C46 28.9 46 29.4 46 34C46 38.6 46 39.1 45.9 40.9C45.8 42.6 45.5 43.5 45.3 44.1C45 44.9 44.6 45.5 44 46.1C43.4 46.7 42.8 47.1 42 47.4C41.4 47.6 40.5 47.9 38.8 48C37.1 48 36.6 48 32 48C27.4 48 26.9 48 25.1 47.9C23.4 47.8 22.5 47.5 21.9 47.3C21.1 47 20.5 46.6 19.9 46C19.3 45.4 18.9 44.8 18.6 44C18.4 43.4 18.1 42.5 18 40.8C18 39.1 18 38.6 18 34C18 29.4 18 28.9 18.1 27.1C18.2 25.4 18.5 24.5 18.7 23.9C19 23.1 19.4 22.5 20 21.9C20.6 21.3 21.2 20.9 22 20.6C22.6 20.4 23.5 20.1 25.2 20C26.9 20 27.4 20 32 20ZM32 17C27.4 17 26.8 17 25 17.1C23.2 17.2 22 17.5 20.9 17.9C19.8 18.3 18.8 18.9 17.9 19.9C17 20.9 16.4 21.8 15.9 22.9C15.5 24 15.2 25.2 15.1 27C15 28.8 15 29.4 15 34C15 38.6 15 39.2 15.1 41C15.2 42.8 15.5 44 15.9 45.1C16.3 46.2 16.9 47.2 17.9 48.1C18.8 49 19.8 49.6 20.9 50.1C22 50.5 23.2 50.8 25 50.9C26.8 51 27.4 51 32 51C36.6 51 37.2 51 39 50.9C40.8 50.8 42 50.5 43.1 50.1C44.2 49.7 45.2 49.1 46.1 48.1C47 47.2 47.6 46.2 48.1 45.1C48.5 44 48.8 42.8 48.9 41C49 39.2 49 38.6 49 34C49 29.4 49 28.8 48.9 27C48.8 25.2 48.5 24 48.1 22.9C47.7 21.8 47.1 20.8 46.1 19.9C45.1 19 44.2 18.4 43.1 17.9C42 17.5 40.8 17.2 39 17.1C37.2 17 36.6 17 32 17Z" fill="white"/>
<path d="M32 25C27 25 23 29 23 34C23 39 27 43 32 43C37 43 41 39 41 34C41 29 37 25 32 25ZM32 40C28.7 40 26 37.3 26 34C26 30.7 28.7 28 32 28C35.3 28 38 30.7 38 34C38 37.3 35.3 40 32 40Z" fill="white"/>
<path d="M41 27C42.1046 27 43 26.1046 43 25C43 23.8954 42.1046 23 41 23C39.8954 23 39 23.8954 39 25C39 26.1046 39.8954 27 41 27Z" fill="white"/>
<defs>
<radialGradient id="paint0_radial_176_105" cx="0" cy="0" r="1" gradientUnits="userSpaceOnUse" gradientTransform="translate(18.5089 66.2956) rotate(-49.945) scale(69.6455 46.0068)">
<stop offset="0.073" stop-color="#EACC7B"/>
<stop offset="0.184" stop-color="#ECAA59"/>
<stop offset="0.307" stop-color="#EF802E"/>
<stop offset="0.358" stop-color="#EF6D3A"/>
<stop offset="0.46" stop-color="#F04B50"/>
<stop offset="0.516" stop-color="#F03E58"/>
<stop offset="0.689" stop-color="#DB359E"/>
<stop offset="0.724" stop-color="#CE37A4"/>
<stop offset="0.789" stop-color="#AC3CB4"/>
<stop offset="0.877" stop-color="#7544CF"/>
<stop offset="0.98" stop-color="#2B4FF2"/>
</radialGradient>
</defs>
</svg>
